<svg xmlns="http://www.w3.org/2000/svg" viewBox="0 0 750 500"><g id="freepik--background-simple--inject-56"><path d="M136.33,192.32c1.88,23.75,5.91,54.65,23.56,71.71s36.51,34.76,58.93,45.56c43.75,21.09,73.72,30.32,126.91,46,33.11,9.78,118.13,19.57,152.49,16.47s58.17-13.31,84-42.49A85.26,85.26,0,0,0,603,266.39c-2-22.2-24.4-42.54-45.5-52.38s-44.14-12.07-67.12-8.17c-19.87,3.38-41,6.28-60.93,2.57-20.7-3.87-37.41-18.7-50.14-34.81s-22.81-34.14-37.15-49C317.4,99,279.7,77.66,243.46,79.8S179.74,91,159.19,119.3C159.19,119.3,133.12,152,136.33,192.32Z" style="fill:#fafafa"></path></g><g id="freepik--Stars--inject-56"><circle cx="597.34" cy="142.16" r="25.23" transform="translate(-3.16 14) rotate(-1.34)" style="fill:#455a64"></circle><path d="M605.56,132.5a4.12,4.12,0,1,1,4,4.21A4.13,4.13,0,0,1,605.56,132.5Z" style="fill:#263238"></path><path d="M613.79,142.1a2.4,2.4,0,1,1,2.34,2.45A2.38,2.38,0,0,1,613.79,142.1Z" style="fill:#263238"></path><path d="M610.58,149.45a.89.89,0,1,1-.9.86A.88.88,0,0,1,610.58,149.45Z" style="fill:#263238"></path><path d="M117.4,209l.56,1a6.71,6.71,0,0,0,2.68,2.68l1,.55-1,.56A6.71,6.71,0,0,0,118,216.5l-.56,1-.55-1a6.77,6.77,0,0,0-2.68-2.68l-1-.56,1-.55a6.77,6.77,0,0,0,2.68-2.68Z" style="fill:#455a64"></path><path d="M316.63,151.06l.55,1a6.77,6.77,0,0,0,2.68,2.68l1,.55-1,.55a6.74,6.74,0,0,0-2.68,2.69l-.55,1-.55-1a6.74,6.74,0,0,0-2.68-2.69l-1-.55,1-.55a6.77,6.77,0,0,0,2.68-2.68Z" style="fill:#455a64"></path><path d="M246.69,126.36l.27.5a3.39,3.39,0,0,0,1.34,1.34l.51.28-.51.28A3.39,3.39,0,0,0,247,130.1l-.27.5-.28-.5a3.32,3.32,0,0,0-1.34-1.34l-.5-.28.5-.28a3.32,3.32,0,0,0,1.34-1.34Z" style="fill:#455a64"></path><path d="M535.27,142.43l.28.51a3.39,3.39,0,0,0,1.34,1.34l.5.27-.5.28a3.32,3.32,0,0,0-1.34,1.34l-.28.5-.27-.5a3.39,3.39,0,0,0-1.34-1.34l-.51-.28.51-.27a3.45,3.45,0,0,0,1.34-1.34Z" style="fill:#455a64"></path><path d="M601.63,227.15l.28.5a3.39,3.39,0,0,0,1.34,1.34l.51.28-.51.28a3.39,3.39,0,0,0-1.34,1.34l-.28.5-.27-.5a3.39,3.39,0,0,0-1.34-1.34l-.51-.28L600,229a3.39,3.39,0,0,0,1.34-1.34Z" style="fill:#455a64"></path><path d="M514.07,433.49l.28.51a3.39,3.39,0,0,0,1.34,1.34l.5.27-.5.28a3.39,3.39,0,0,0-1.34,1.34l-.28.51-.27-.51a3.45,3.45,0,0,0-1.34-1.34l-.51-.28.51-.27A3.45,3.45,0,0,0,513.8,434Z" style="fill:#455a64"></path><path d="M606.47,349.81l.27.51a3.45,3.45,0,0,0,1.34,1.34l.51.27-.51.28a3.39,3.39,0,0,0-1.34,1.34l-.27.5-.28-.5a3.32,3.32,0,0,0-1.34-1.34l-.5-.28.5-.27a3.39,3.39,0,0,0,1.34-1.34Z" style="fill:#455a64"></path><path d="M391.6,373.58l.28.51a3.39,3.39,0,0,0,1.34,1.34l.5.27-.5.28a3.32,3.32,0,0,0-1.34,1.34l-.28.51-.27-.51A3.39,3.39,0,0,0,390,376l-.51-.28.51-.27a3.45,3.45,0,0,0,1.34-1.34Z" style="fill:#455a64"></path><path d="M257.39,349.81l.27.51a3.45,3.45,0,0,0,1.34,1.34l.51.27-.51.28a3.39,3.39,0,0,0-1.34,1.34l-.27.5-.28-.5a3.39,3.39,0,0,0-1.34-1.34l-.51-.28.51-.27a3.45,3.45,0,0,0,1.34-1.34Z" style="fill:#455a64"></path><path d="M70.72,224.93l.28.5a3.39,3.39,0,0,0,1.34,1.34l.51.28-.51.27A3.41,3.41,0,0,0,71,228.67l-.28.5-.27-.5a3.41,3.41,0,0,0-1.34-1.35l-.51-.27.51-.28a3.39,3.39,0,0,0,1.34-1.34Z" style="fill:#455a64"></path><path d="M306.84,381.4l1,1.74a11.72,11.72,0,0,0,4.63,4.63l1.74,1-1.74.95a11.72,11.72,0,0,0-4.63,4.63l-1,1.74-.95-1.74a11.72,11.72,0,0,0-4.63-4.63l-1.74-.95,1.74-1a11.72,11.72,0,0,0,4.63-4.63Z" style="fill:#455a64"></path><path d="M490.73,194.29l1,1.74a11.59,11.59,0,0,0,4.63,4.63l1.74,1-1.74,1a11.59,11.59,0,0,0-4.63,4.63l-1,1.74-1-1.74a11.59,11.59,0,0,0-4.63-4.63l-1.74-1,1.74-1a11.59,11.59,0,0,0,4.63-4.63Z" style="fill:#455a64"></path></g></svg>